<?xml version="1.0" encoding="UTF-8"?>
<!DOCTYPE svg PUBLIC "-//W3C//DTD SVG 1.1//EN" "http://www.w3.org/Graphics/SVG/1.1/DTD/svg11.dtd">
<!-- Creator: CorelDRAW 2019 (64-Bit) -->
<svg xmlns="http://www.w3.org/2000/svg" xml:space="preserve" width="1600px" height="992px" version="1.1" style="shape-rendering:geometricPrecision; text-rendering:geometricPrecision; image-rendering:optimizeQuality; fill-rule:evenodd; clip-rule:evenodd"
viewBox="0 0 1600 992"
 xmlns:xlink="http://www.w3.org/1999/xlink"
 xmlns:xodm="http://www.corel.com/coreldraw/odm/2003">
 <defs>
  <style type="text/css">
   <![CDATA[
    .fil0 {fill:black}
    .fil1 {fill:white}
   ]]>
  </style>
 </defs>
 <g id="Layer_x0020_1">
  <metadata id="CorelCorpID_0Corel-Layer"/>
  <path class="fil0" d="M-91.83 -439.76l0 237.06 728.14 0 0 -84.66c0,-39.02 11.77,-50.81 50.79,-50.81l338.67 0c39.02,0 50.8,11.79 50.8,50.81l0 84.66 728.14 0 0 -237.06 -1896.54 0zm0 1371.6l0 -1066.8 728.14 0 0 491.06 152.4 0c0,66.84 -20.47,182.73 67.73,270.94 88.2,-88.21 67.73,-204.1 67.73,-270.94l152.4 0 0 -491.06 728.14 0 0 1066.8 -1896.54 0zm-50.8 558.8c-39.49,0 -84.67,-45.19 -84.67,-84.67l0 -1896.54c0,-39.48 45.18,-84.67 84.67,-84.67l1998.13 0c39.49,0 84.67,45.19 84.67,84.67l0 1896.54c0,39.48 -45.18,84.67 -84.67,84.67l-1998.13 0zm1700.14 -457.2l116.99 0c5.21,0 9.47,-4.27 9.47,-9.48l0 -21.94c0,-5.21 -4.26,-9.48 -9.47,-9.48l-116.99 0c-5.21,0 -9.47,4.27 -9.47,9.48l0 21.94c0,5.21 4.26,9.48 9.47,9.48zm-200.53 0l116.99 0c5.21,0 9.47,-4.27 9.47,-9.48l0 -21.94c0,-5.21 -4.26,-9.48 -9.47,-9.48l-116.99 0c-5.21,0 -9.47,4.27 -9.47,9.48l0 21.94c0,5.21 4.26,9.48 9.47,9.48zm-889.62 312.12l-356.12 0c-28.45,0 -51.72,-23.27 -51.72,-51.71l0 -161.37c0,-28.44 23.27,-51.71 51.72,-51.71l356.12 0c28.44,0 51.71,23.27 51.71,51.71l0 161.37c0,28.44 -23.27,51.71 -51.71,51.71zm51.71 -1378.93c0,65.32 46.55,84.67 100.3,84.67l0 -169.34c-44.91,0 -100.3,19.36 -100.3,84.67zm674.74 0c0,65.32 -46.56,84.67 -100.3,84.67l0 -169.34c44.91,0 100.3,19.36 100.3,84.67z"/>
  <rect class="fil1" x="-227.3" y="-626.03" width="2167.47" height="2167.47"/>
 </g>
</svg>
