<?xml version="1.0" encoding="UTF-8"?>
<!DOCTYPE svg PUBLIC "-//W3C//DTD SVG 1.1//EN" "http://www.w3.org/Graphics/SVG/1.1/DTD/svg11.dtd">
<!-- Creator: CorelDRAW 2019 (64-Bit) -->
<svg xmlns="http://www.w3.org/2000/svg" xml:space="preserve" width="512px" height="512px" version="1.1" style="shape-rendering:geometricPrecision; text-rendering:geometricPrecision; image-rendering:optimizeQuality; fill-rule:evenodd; clip-rule:evenodd"
viewBox="0 0 512 512"
 xmlns:xlink="http://www.w3.org/1999/xlink"
 xmlns:xodm="http://www.corel.com/coreldraw/odm/2003">
 <defs>
  <style type="text/css">
   <![CDATA[
    .fil0 {fill:white}
   ]]>
  </style>
 </defs>
 <g id="Layer_x0020_1">
  <metadata id="CorelCorpID_0Corel-Layer"/>
  <path class="fil0" d="M161.8 509.54c3.96,3.34 11.14,3.1 15.53,0.35l289.57 -181.07c2.71,-1.69 3.66,-5.53 4.01,-8.71l17.62 -162.35 -308.38 115.73c-7.38,2.77 -16.68,3.01 -23.64,-0.7l-136.9 -73.04 9.62 192.69c0.14,2.81 1.09,5.96 3.24,7.77l129.33 109.33zm1.94 -433.55c12.07,3.99 25.61,3.73 38.11,1.41l247.69 -45.86c6.79,-1.26 4.79,-5.03 -1.4,-6.32l-86.46 -18.03c-7.02,-1.46 -14.41,-0.57 -21.52,0.35l-258.28 33.52c-7.28,0.95 -11.02,4.22 -4.58,6.35l86.44 28.58zm335.75 -19.21l-10.03 92.46 -309.66 114.73c-6.4,2.37 -14.42,3.87 -20.47,0.7l-140.14 -73.4 -5.66 -113.25c-0.09,-1.87 -3.99,-1.92 -4.15,-3.79l-2.03 -22.58c-0.59,-6.59 10.55,-9.21 17.11,-10.06l313.5 -40.49c8.75,-1.13 17.82,-1.77 26.46,0l133.55 27.44c2.82,0.58 6.81,2.58 6.7,5.46l-0.7 19.23c-0.07,1.9 -4.27,1.66 -4.48,3.55zm-402.52 -12.1c4.07,0 7.36,0.87 7.36,1.94 0,1.07 -3.29,1.94 -7.36,1.94 -4.07,0 -7.37,-0.87 -7.37,-1.94 0,-1.07 3.3,-1.94 7.37,-1.94zm282.35 -3.24l0.05 -9.55c0.01,-1.96 1.83,-3.61 3.79,-3.62l28.85 -0.13c2.08,-0.01 3.79,1.67 3.79,3.75l0 2.8 -36.48 6.75zm-32.78 6.07l0.03 -9.55c0,-1.96 1.11,-3.61 2.31,-3.61l17.57 -0.14c1.27,-0.01 2.31,1.67 2.31,3.75l0 5.43 -22.22 4.12zm-24.91 4.62l0.03 -9.55c0.01,-1.97 1.12,-3.61 2.31,-3.62l17.58 -0.13c1.27,-0.01 2.31,1.66 2.31,3.75l0 5.42 -22.23 4.13zm-24.9 4.61l0.03 -9.55c0,-1.96 1.11,-3.61 2.31,-3.62l17.57 -0.13c1.27,-0.01 2.31,1.67 2.31,3.75l0 5.42 -22.22 4.13zm-24.91 4.61l0.03 -9.55c0.01,-1.96 1.12,-3.61 2.32,-3.62l17.57 -0.13c1.27,-0.01 2.31,1.67 2.31,3.75l0 5.42 -22.23 4.13zm-24.9 4.61l0.03 -9.55c0.01,-1.96 1.12,-3.61 2.31,-3.62l17.58 -0.13c1.26,-0.01 2.31,1.67 2.31,3.75l0 5.43 -22.23 4.12zm-24.9 4.61l0.03 -9.55c0,-1.96 1.11,-3.61 2.31,-3.61l17.57 -0.14c1.27,-0.01 2.31,1.67 2.31,3.75l0 5.43 -22.22 4.12z"/>
 </g>
</svg>
