<?xml version="1.0" encoding="UTF-8"?>
<!DOCTYPE svg PUBLIC "-//W3C//DTD SVG 1.1//EN" "http://www.w3.org/Graphics/SVG/1.1/DTD/svg11.dtd">
<!-- Creator: CorelDRAW 2019 (64-Bit) -->
<svg xmlns="http://www.w3.org/2000/svg" xml:space="preserve" width="512px" height="512px" version="1.1" style="shape-rendering:geometricPrecision; text-rendering:geometricPrecision; image-rendering:optimizeQuality; fill-rule:evenodd; clip-rule:evenodd"
viewBox="0 0 512 512"
 xmlns:xlink="http://www.w3.org/1999/xlink"
 xmlns:xodm="http://www.corel.com/coreldraw/odm/2003">
 <defs>
  <style type="text/css">
   <![CDATA[
    .fil0 {fill:none}
    .fil1 {fill:white}
   ]]>
  </style>
 </defs>
 <g id="Layer_x0020_1">
  <metadata id="CorelCorpID_0Corel-Layer"/>
  <rect class="fil0" width="512" height="512"/>
  <path class="fil1" d="M38.05 264.06c22.91,93.4 100.78,259.6 146.7,247.29 79.26,-17.97 157.32,-41.09 234.71,-67.06 25.54,-28.42 44.8,-60 54.49,-96.4 -14.87,-16.11 -111.48,-117.55 -123.95,-117.32 2.03,-26.7 3.25,-53.3 2.4,-79.68 -19.03,-15.65 -26.62,-44.77 -29.34,-79.63 -24.32,-6.98 -39.48,-24.12 -50.29,-46.11 -2.22,-10.57 -12.7,-19.12 -33.54,-25.15 -13.26,6.64 -30.98,8.39 -50.29,8.39 -6.84,8.22 -24.83,19.36 -54.49,33.53 -33.56,19.37 2.1,56.58 0,79.63 -2.8,26.55 -8.01,52.95 -8.38,79.64 -0.14,9.5 0.95,21.02 2.35,33.75 -26.47,5.72 -61.96,18.88 -90.37,29.12zm287.41 -43.92c1.54,-9.48 7.32,-24.41 6.86,-36.11 -0.35,-8.68 5.21,-17.02 0.13,-29.34 -3.06,-7.41 -0.28,-13.28 -12.57,-22.09 -5.47,-3.93 -35.25,-16.01 -37.82,-0.92 -2.14,12.6 -9.4,29.43 -22.57,34.02 -11.85,4.12 -28.07,4.65 -40.82,2.05 -16.58,-3.4 -26.95,-41.38 -27.29,-41.35 -1,-4.84 -29.45,15.7 -31.39,25.19 -3.04,14.95 -7.45,30.38 5.02,41 27.86,23.75 39.46,83.11 62.7,106.53 6.65,6.7 15.89,35.68 24.1,32 3.15,-1.41 16.67,-1.95 24.58,-7.59 6.38,-4.54 15.76,6.9 29.87,-20.43 5.53,-10.72 9.38,-10.71 8.77,-26.33 0,-10.19 8.15,-42.49 10.43,-56.63zm-195.2 123.55c43.84,3.97 69.16,25.15 104.78,25.15 35.15,-1.34 69.98,-11.63 104.79,-20.95 2.04,-31.92 5.56,-64.01 8.4,-96.02l92.19 100.21c-97.8,23.75 -195.6,47.5 -293.39,71.25 -38.09,-42.18 -69.03,-90.91 -92.22,-146.7l75.74 -22.72c3.17,28.91 5.87,61.42 -0.29,89.78zm108.97 -180.23c20.83,0 37.73,-16.89 37.73,-37.72 0,-20.83 -16.9,-37.72 -37.73,-37.72 -20.83,0 -37.72,16.89 -37.72,37.72 0,20.83 16.89,37.72 37.72,37.72zm-46.1 -58.67c11.21,-16.16 -1.95,-6.09 16.98,-17.3 10.02,-5.93 31.98,-6.98 2.62,-24.35 -8.97,-5.3 -33.74,-3.28 -38.64,10.86 -4.22,12.19 -19.3,21.78 4.76,26.68 2.09,0.43 14.12,4.34 14.28,4.11z"/>
 </g>
</svg>
