<?xml version="1.0" encoding="UTF-8"?>
<!DOCTYPE svg PUBLIC "-//W3C//DTD SVG 1.1//EN" "http://www.w3.org/Graphics/SVG/1.1/DTD/svg11.dtd">
<!-- Creator: CorelDRAW 2019 (64-Bit) -->
<svg xmlns="http://www.w3.org/2000/svg" xml:space="preserve" width="512px" height="512px" version="1.1" style="shape-rendering:geometricPrecision; text-rendering:geometricPrecision; image-rendering:optimizeQuality; fill-rule:evenodd; clip-rule:evenodd"
viewBox="0 0 512 512"
 xmlns:xlink="http://www.w3.org/1999/xlink"
 xmlns:xodm="http://www.corel.com/coreldraw/odm/2003">
 <defs>
  <style type="text/css">
   <![CDATA[
    .fil0 {fill:none}
    .fil1 {fill:white;fill-rule:nonzero}
   ]]>
  </style>
 </defs>
 <g id="Layer_x0020_1">
  <metadata id="CorelCorpID_0Corel-Layer"/>
  <rect class="fil0" width="512" height="512"/>
  <path class="fil1" d="M256 239.12c40.71,0 89.49,-8.2 124.58,-24.74 16.84,-7.94 30.17,-17.6 36.86,-28.8 -107.63,0 -215.25,0 -322.88,0 6.69,11.2 20.02,20.86 36.86,28.8 35.09,16.54 83.87,24.74 124.58,24.74zm-158.05 -85.96l0 -28.36c0,-8.95 7.26,-16.21 16.21,-16.21l283.68 0c8.95,0 16.21,7.26 16.21,16.21l0 28.36 24.31 0c8.95,0 16.21,7.26 16.21,16.21 0,33.01 -24.72,57.54 -60.18,74.26 -39.59,18.65 -93.69,27.92 -138.39,27.92 -44.7,0 -98.8,-9.27 -138.39,-27.92 -35.46,-16.72 -60.18,-41.25 -60.18,-74.26 0,-8.95 7.26,-16.21 16.21,-16.21l24.31 0zm283.67 0l0 -12.15 -251.24 0 0 12.15 251.24 0zm47.49 119.46c-5.39,-7.13 -3.97,-17.28 3.16,-22.67 7.13,-5.38 17.29,-3.96 22.67,3.17l53.79 71.1c5.38,7.13 3.96,17.29 -3.17,22.67 -7.13,5.39 -17.28,3.96 -22.67,-3.17l-53.78 -71.1zm-91.38 23.61c-2.44,-8.56 2.52,-17.5 11.08,-19.95 8.57,-2.44 17.5,2.52 19.95,11.08l24.7 85.67c2.45,8.57 -2.52,17.5 -11.08,19.95 -8.56,2.44 -17.5,-2.52 -19.94,-11.08l-24.71 -85.67zm-97.94 1.81c0,-8.95 7.26,-16.21 16.21,-16.21 8.95,0 16.21,7.26 16.21,16.21l0 89.16c0,8.95 -7.26,16.21 -16.21,16.21 -8.95,0 -16.21,-7.26 -16.21,-16.21l0 -89.16zm-96.55 -10.68c2.45,-8.56 11.38,-13.52 19.95,-11.08 8.56,2.45 13.52,11.39 11.08,19.95l-24.71 85.67c-2.44,8.56 -11.38,13.52 -19.94,11.08 -8.56,-2.45 -13.53,-11.38 -11.08,-19.95l24.7 -85.67zm-86.18 -34.24c5.38,-7.13 15.54,-8.55 22.67,-3.17 7.13,5.39 8.55,15.54 3.16,22.67l-53.79 71.1c-5.38,7.13 -15.53,8.56 -22.67,3.17 -7.13,-5.38 -8.55,-15.54 -3.16,-22.67l53.79 -71.1z"/>
 </g>
</svg>
