<?xml version="1.0" encoding="UTF-8"?>
<!DOCTYPE svg PUBLIC "-//W3C//DTD SVG 1.1//EN" "http://www.w3.org/Graphics/SVG/1.1/DTD/svg11.dtd">
<!-- Creator: CorelDRAW 2019 (64-Bit) -->
<svg xmlns="http://www.w3.org/2000/svg" xml:space="preserve" width="512px" height="512px" version="1.1" style="shape-rendering:geometricPrecision; text-rendering:geometricPrecision; image-rendering:optimizeQuality; fill-rule:evenodd; clip-rule:evenodd"
viewBox="0 0 512 512"
 xmlns:xlink="http://www.w3.org/1999/xlink"
 xmlns:xodm="http://www.corel.com/coreldraw/odm/2003">
 <defs>
  <style type="text/css">
   <![CDATA[
    .fil0 {fill:none}
    .fil1 {fill:white}
   ]]>
  </style>
 </defs>
 <g id="Layer_x0020_1">
  <metadata id="CorelCorpID_0Corel-Layer"/>
  <rect class="fil0" width="512" height="512"/>
  <path class="fil1" d="M475.5 171.24c28.92,0 43.41,-20.54 33.27,-40.62l0 -23.83c-18,-5.73 -36.01,-11.46 -54.01,-17.19 -5.22,2.48 -10.44,4.95 -15.66,7.42 0,3 0,5.99 0,8.99l-425.1 268.75c-3.15,1.99 -7.22,3.37 -9,6.64 -1.94,3.57 -0.78,8.07 -1.18,12.11 -2.41,0.65 -3.82,6 -3.82,9.38 0,10.66 9.55,19.51 22.27,19.51 5.44,0 8.32,-0.84 10.13,-2.72 147.7,-82.81 295.4,-165.62 443.1,-248.44zm-2.81 -2.48c-20.68,-7.92 -30.13,-19.76 -29.94,-34.96l-432.74 262.89c-3.66,2.23 -5.48,3.77 -5.48,7.23 0,7.37 7.08,13.87 17.42,13.87 3.71,0 6.6,-1.65 9.59,-3.32l441.15 -245.71zm-463.55 216.89c-1.14,0.71 -2.29,2.39 -1.77,3.62 0.49,1.13 2.57,1.42 3.62,0.78l426.38 -260.65 -1.17 -6.64 -427.06 262.89z"/>
 </g>
</svg>
