<?xml version="1.0" encoding="UTF-8"?>
<!DOCTYPE svg PUBLIC "-//W3C//DTD SVG 1.1//EN" "http://www.w3.org/Graphics/SVG/1.1/DTD/svg11.dtd">
<!-- Creator: CorelDRAW 2019 (64-Bit) -->
<svg xmlns="http://www.w3.org/2000/svg" xml:space="preserve" width="512px" height="512px" version="1.1" style="shape-rendering:geometricPrecision; text-rendering:geometricPrecision; image-rendering:optimizeQuality; fill-rule:evenodd; clip-rule:evenodd"
viewBox="0 0 512 512"
 xmlns:xlink="http://www.w3.org/1999/xlink"
 xmlns:xodm="http://www.corel.com/coreldraw/odm/2003">
 <defs>
  <style type="text/css">
   <![CDATA[
    .fil0 {fill:none}
    .fil1 {fill:#FEFEFE}
   ]]>
  </style>
 </defs>
 <g id="Layer_x0020_1">
  <metadata id="CorelCorpID_0Corel-Layer"/>
  <rect class="fil0" width="512" height="512"/>
  <path class="fil1" d="M252.8 43.48l48.84 -1.37c5.51,-0.15 10.01,4.51 10.01,10.02l0 390.62c0,5.5 -4.53,10.56 -10.01,10.01l-48.84 -4.89c-5.48,-0.55 -10.01,-4.5 -10.01,-10.01l0 -384.36c0,-5.51 4.51,-9.87 10.01,-10.02zm-100.16 4.69l48.83 -1.37c5.51,-0.15 10.02,4.51 10.02,10.02l0 374.19c0,5.5 -4.54,10.56 -10.02,10.01l-48.83 -4.89c-5.48,-0.55 -10.02,-4.5 -10.02,-10.01l0 -367.93c0,-5.51 4.51,-9.86 10.02,-10.02zm66.28 183.61l3.32 0c1.35,0 2.45,1.1 2.45,2.45l0 20.54c0,1.35 -1.1,2.45 -2.45,2.45l-3.32 0c-1.35,0 -2.45,-1.1 -2.45,-2.45l0 -20.54c0,-1.35 1.1,-2.45 2.45,-2.45zm14.38 0.98l3.32 0c1.35,0 2.45,1.1 2.45,2.45l0 20.54c0,1.34 -1.1,2.45 -2.45,2.45l-3.32 0c-1.35,0 -2.45,-1.11 -2.45,-2.45l0 -20.54c0,-1.35 1.1,-2.45 2.45,-2.45zm112.89 -222.34l0 0c3.23,0 5.87,2.64 5.87,5.87l0 450.76c0,3.23 -2.64,5.87 -5.87,5.87l0 0c-3.23,0 -5.87,-2.64 -5.87,-5.87l0 -450.76c0,-3.23 2.64,-5.87 5.87,-5.87zm-223.48 4.9l221.91 -15.32 44.62 8.34c1.34,0.25 2.73,1.68 2.73,3.04l0 479.74c0,1.59 -0.25,4.83 -1.81,4.83 -1.87,0 -2.29,-3 -2.29,-4.83l-0.39 -27 -31.5 12.33 0.2 30.91c0,5.97 -18.79,6.33 -18.79,0.2l0 -29.94 -206.01 -25.63 0 30.91c0,3.39 -10.17,3.39 -10.17,0l-1.18 -464.97c0,-1.25 1.44,-2.52 2.68,-2.61zm126.64 225.27l57.23 -2.54c0.86,-0.04 1.56,0.7 1.56,1.56l0 0c0,0.87 -0.7,1.53 -1.56,1.57l-57.23 2.54c-0.86,0.04 -1.56,-0.7 -1.56,-1.56l0 0c0,-0.86 0.7,-1.53 1.56,-1.57zm-100.91 4.49l57.22 -2.54c0.87,-0.04 1.57,0.7 1.57,1.56l0 0c0,0.86 -0.71,1.53 -1.57,1.57l-57.22 2.54c-0.86,0.04 -1.57,-0.7 -1.57,-1.57l0 0c0,-0.86 0.71,-1.52 1.57,-1.56zm100.91 113.09l57.23 -2.54c0.86,-0.04 1.56,0.7 1.56,1.56l0 0c0,0.86 -0.7,1.53 -1.56,1.57l-57.23 2.54c-0.86,0.04 -1.56,-0.7 -1.56,-1.57l0 0c0,-0.86 0.7,-1.52 1.56,-1.56zm-100.91 4.49l57.22 -2.55c0.87,-0.03 1.57,0.71 1.57,1.57l0 0c0,0.86 -0.71,1.53 -1.57,1.56l-57.22 2.55c-0.86,0.03 -1.57,-0.71 -1.57,-1.57l0 0c0,-0.86 0.71,-1.53 1.57,-1.56zm100.91 -233.39l57.23 -2.54c0.86,-0.04 1.56,0.7 1.56,1.56l0 0c0,0.87 -0.7,1.53 -1.56,1.57l-57.23 2.54c-0.86,0.04 -1.56,-0.7 -1.56,-1.56l0 0c0,-0.87 0.7,-1.53 1.56,-1.57zm-100.91 4.49l57.22 -2.55c0.87,-0.03 1.57,0.71 1.57,1.57l0 0c0,0.86 -0.71,1.53 -1.57,1.57l-57.22 2.54c-0.86,0.04 -1.57,-0.7 -1.57,-1.57l0 0c0,-0.86 0.71,-1.52 1.57,-1.56z"/>
 </g>
</svg>
