<?xml version="1.0" encoding="UTF-8"?>
<!DOCTYPE svg PUBLIC "-//W3C//DTD SVG 1.1//EN" "http://www.w3.org/Graphics/SVG/1.1/DTD/svg11.dtd">
<!-- Creator: CorelDRAW 2019 (64-Bit) -->
<svg xmlns="http://www.w3.org/2000/svg" xml:space="preserve" width="512px" height="512px" version="1.1" style="shape-rendering:geometricPrecision; text-rendering:geometricPrecision; image-rendering:optimizeQuality; fill-rule:evenodd; clip-rule:evenodd"
viewBox="0 0 512 512"
 xmlns:xlink="http://www.w3.org/1999/xlink"
 xmlns:xodm="http://www.corel.com/coreldraw/odm/2003">
 <defs>
  <style type="text/css">
   <![CDATA[
    .fil0 {fill:none}
    .fil1 {fill:white}
   ]]>
  </style>
 </defs>
 <g id="Layer_x0020_1">
  <metadata id="CorelCorpID_0Corel-Layer"/>
  <rect class="fil0" width="512" height="512"/>
  <g>
   <path class="fil1" d="M46.93 138.67c0,-12.8 17.07,-25.6 38.4,-25.6 0,-8.53 8.53,-12.8 21.33,-12.8l345.6 8.54c4.27,0 12.8,4.26 12.8,8.53 12.8,0 34.14,12.8 34.14,21.33l-452.27 0zm-46.93 277.34c11.38,7.11 22.75,14.22 34.13,21.33 159.29,-15.64 318.58,-31.29 477.87,-46.93l0 -260.27c0,-19.34 -14.8,-46.54 -34.14,-46.93l-422.4 -8.54c-26.21,-0.53 -50.8,33.53 -51.2,59.74l-4.26 281.6zm443.73 -294.4c7.07,0 12.8,1.91 12.8,4.26 0,2.35 -5.73,4.26 -12.8,4.26 -7.07,0 -12.8,-1.91 -12.8,-4.26 0,-2.35 5.73,-4.26 12.8,-4.26zm-401.07 25.6l0 268.8 456.54 -46.94 0 -217.6 -456.54 -4.26zm191.94 -13.18l4.64 -22.13 16.39 0 -0.78 3.71 -11.84 0 -1.09 5.01 11.48 0 -0.77 3.71 -11.52 0 -1.31 5.99 12.86 0 -0.77 3.71 -17.29 0zm24.34 0l-5.91 0 9.77 -11.16 -5.51 -10.97 4.75 0 2.17 4.04c0.08,0.15 0.57,1.15 1.49,2.99 0.06,0.1 0.13,0.23 0.2,0.4 1.21,-1.47 2.23,-2.66 3.06,-3.59l3.44 -3.84 5.79 0 -10.11 11.63 5.45 10.5 -5.14 0 -1.7 -3.22c-0.88,-1.71 -1.47,-2.93 -1.75,-3.67 -0.39,0.58 -1.38,1.76 -2.99,3.57l-3.01 3.32zm17.71 -10.04l8.41 0 -0.84 4.17 -8.41 0 0.84 -4.17zm10.17 3.74l4.24 -0.37c-0.02,0.2 -0.02,0.35 -0.02,0.45 0,1.02 0.23,1.79 0.68,2.3 0.46,0.51 1.06,0.77 1.8,0.77 1.02,0 1.96,-0.49 2.8,-1.47 0.84,-0.98 1.26,-2.34 1.26,-4.07 0,-1.03 -0.24,-1.81 -0.72,-2.33 -0.47,-0.52 -1.11,-0.79 -1.9,-0.79 -0.57,0 -1.12,0.13 -1.65,0.4 -0.53,0.25 -1.05,0.65 -1.54,1.18l-3.56 -0.27 3.37 -11.32 11.13 0 -0.8 3.95 -7.37 0 -1.02 3.43c0.43,-0.2 0.85,-0.34 1.28,-0.44 0.42,-0.09 0.84,-0.14 1.26,-0.14 1.69,0 3.09,0.57 4.18,1.7 1.09,1.14 1.64,2.67 1.64,4.59 0,1.53 -0.38,3.04 -1.14,4.52 -0.77,1.49 -1.82,2.63 -3.17,3.42 -1.35,0.8 -2.77,1.2 -4.25,1.2 -1.88,0 -3.43,-0.61 -4.65,-1.83 -1.21,-1.21 -1.83,-2.84 -1.85,-4.88zm17.19 -0.88c0,-2.23 0.38,-4.49 1.14,-6.77 0.93,-2.8 2.12,-4.87 3.57,-6.23 1.45,-1.37 3.06,-2.05 4.84,-2.05 1.8,0 3.27,0.65 4.43,1.95 1.15,1.31 1.73,3.19 1.73,5.68 0,2.26 -0.42,4.66 -1.26,7.18 -0.85,2.53 -1.98,4.46 -3.41,5.81 -1.44,1.34 -3.05,2.02 -4.85,2.02 -1.79,0 -3.27,-0.65 -4.44,-1.95 -1.16,-1.31 -1.75,-3.19 -1.75,-5.64zm4.24 0.88c0,1.19 0.19,2.03 0.58,2.52 0.38,0.48 0.88,0.72 1.49,0.72 0.81,0 1.53,-0.37 2.16,-1.12 0.84,-1 1.58,-2.97 2.23,-5.9 0.52,-2.33 0.77,-4.18 0.77,-5.55 0,-1.11 -0.19,-1.91 -0.58,-2.4 -0.39,-0.48 -0.89,-0.73 -1.5,-0.73 -0.76,0 -1.45,0.37 -2.05,1.11 -0.88,1.06 -1.64,2.95 -2.28,5.64 -0.55,2.34 -0.82,4.24 -0.82,5.71zm12.96 -0.88c0,-2.23 0.38,-4.49 1.13,-6.77 0.93,-2.8 2.12,-4.87 3.57,-6.23 1.46,-1.37 3.07,-2.05 4.85,-2.05 1.79,0 3.27,0.65 4.42,1.95 1.16,1.31 1.73,3.19 1.73,5.68 0,2.26 -0.42,4.66 -1.26,7.18 -0.84,2.53 -1.98,4.46 -3.41,5.81 -1.43,1.34 -3.05,2.02 -4.84,2.02 -1.8,0 -3.28,-0.65 -4.44,-1.95 -1.17,-1.31 -1.75,-3.19 -1.75,-5.64zm4.23 0.88c0,1.19 0.2,2.03 0.58,2.52 0.39,0.48 0.88,0.72 1.49,0.72 0.81,0 1.53,-0.37 2.16,-1.12 0.84,-1 1.59,-2.97 2.24,-5.9 0.51,-2.33 0.77,-4.18 0.77,-5.55 0,-1.11 -0.2,-1.91 -0.59,-2.4 -0.38,-0.48 -0.88,-0.73 -1.49,-0.73 -0.77,0 -1.46,0.37 -2.05,1.11 -0.88,1.06 -1.65,2.95 -2.29,5.64 -0.54,2.34 -0.82,4.24 -0.82,5.71zm12.96 -0.88c0,-2.23 0.38,-4.49 1.14,-6.77 0.92,-2.8 2.11,-4.87 3.57,-6.23 1.45,-1.37 3.06,-2.05 4.84,-2.05 1.79,0 3.27,0.65 4.43,1.95 1.15,1.31 1.73,3.19 1.73,5.68 0,2.26 -0.42,4.66 -1.26,7.18 -0.85,2.53 -1.98,4.46 -3.41,5.81 -1.44,1.34 -3.05,2.02 -4.85,2.02 -1.79,0 -3.28,-0.65 -4.44,-1.95 -1.16,-1.31 -1.75,-3.19 -1.75,-5.64zm4.24 0.88c0,1.19 0.19,2.03 0.58,2.52 0.38,0.48 0.88,0.72 1.49,0.72 0.8,0 1.53,-0.37 2.15,-1.12 0.84,-1 1.59,-2.97 2.24,-5.9 0.52,-2.33 0.77,-4.18 0.77,-5.55 0,-1.11 -0.19,-1.91 -0.58,-2.4 -0.39,-0.48 -0.89,-0.73 -1.5,-0.73 -0.77,0 -1.45,0.37 -2.05,1.11 -0.88,1.06 -1.64,2.95 -2.28,5.64 -0.55,2.34 -0.82,4.24 -0.82,5.71zm-204.75 20.37l-0.03 229.57 0.03 -229.57zm80 0.74l0 220.23 0 -220.23zm75.73 0.71l0 215.26 0 -215.26zm70.94 0.66l0 206.06 0 -206.06zm66.65 0.63l0 201.17 0 -201.17zm-388.55 234.72l456.54 -37.86 -456.54 37.86zm0 -25.06l456.54 -33.6 -456.54 33.6zm0 -22.4l456.54 -33.6 -456.54 33.6zm0 -22.4l456.54 -33.6 -456.54 33.6zm0 -22.4l456.54 -33.61 -456.54 33.61zm0 -22.4l456.54 -33.61 -456.54 33.61zm0 -22.4l456.54 -33.6 -456.54 33.6zm0 -22.4l456.54 -33.61 -456.54 33.61zm0 -22.4l456.54 -33.61 -456.54 33.61zm0 -22.4l420.37 -30.17 -420.37 30.17z"/>
  </g>
 </g>
</svg>
