<?xml version="1.0" encoding="UTF-8"?>
<!DOCTYPE svg PUBLIC "-//W3C//DTD SVG 1.1//EN" "http://www.w3.org/Graphics/SVG/1.1/DTD/svg11.dtd">
<!-- Creator: CorelDRAW 2018 (64-Bit) -->
<svg xmlns="http://www.w3.org/2000/svg" xml:space="preserve" width="512px" height="512px" version="1.1" style="shape-rendering:geometricPrecision; text-rendering:geometricPrecision; image-rendering:optimizeQuality; fill-rule:evenodd; clip-rule:evenodd"
viewBox="0 0 512 512"
 xmlns:xlink="http://www.w3.org/1999/xlink">
 <defs>
  <style type="text/css">
   <![CDATA[
    .fil0 {fill:white}
   ]]>
  </style>
 </defs>
 <g id="Layer_x0020_1">
  <metadata id="CorelCorpID_0Corel-Layer"/>
  <path class="fil0" d="M222.47 401.09l67.06 0c3.2,0 5.81,2.61 5.81,5.8l0 0c0,3.19 -2.61,5.81 -5.81,5.81l-67.06 0c-3.19,0 -5.8,-2.62 -5.8,-5.81l0 0c0,-3.19 2.61,-5.8 5.8,-5.8zm289.53 1.29l0 14.18c0,3.55 -2.9,6.45 -6.45,6.45l-499.1 0c-3.55,0 -6.45,-2.9 -6.45,-6.45l0 -14.18 34.82 -27.08 439.78 0 37.4 27.08zm-450.1 -313.39l388.2 0c14.18,0 25.79,11.6 25.79,25.79l0 243.75c0,3.55 -2.9,6.45 -6.45,6.45l-426.88 0c-3.55,0 -6.45,-2.9 -6.45,-6.45l0 -243.75c0,-14.19 11.61,-25.79 25.79,-25.79zm-7.73 19.34l403.66 0 0 242.46 -403.66 0 0 -242.46z"/>
 </g>
</svg>
