<?xml version="1.0" encoding="UTF-8"?>
<!DOCTYPE svg PUBLIC "-//W3C//DTD SVG 1.1//EN" "http://www.w3.org/Graphics/SVG/1.1/DTD/svg11.dtd">
<!-- Creator: CorelDRAW 2018 (64-Bit) -->
<svg xmlns="http://www.w3.org/2000/svg" xml:space="preserve" width="512px" height="512px" version="1.1" style="shape-rendering:geometricPrecision; text-rendering:geometricPrecision; image-rendering:optimizeQuality; fill-rule:evenodd; clip-rule:evenodd"
viewBox="0 0 512 512"
 xmlns:xlink="http://www.w3.org/1999/xlink">
 <defs>
  <style type="text/css">
   <![CDATA[
    .fil0 {fill:white}
   ]]>
  </style>
 </defs>
 <g id="Layer_x0020_1">
  <metadata id="CorelCorpID_0Corel-Layer"/>
  <path class="fil0" d="M192.09 483.7c3.24,-10.41 -9.86,-26.21 -29.28,-35.11 -71.4,-32.72 -115.36,-107.24 -115.36,-192.52 0,-115.34 93.37,-208.84 208.55,-208.84 115.18,0 208.55,93.5 208.55,208.84 0,99.51 -70.25,179.67 -162.54,203.74 -25.14,6.55 -18.69,-43 -17.51,-62.43 43.29,0 86.79,-37.52 86.79,-73.78l0 -95.04c0,-6.63 -7.74,-13.76 -14.37,-13.76l-17.48 0 0 -81.28c0,-7.5 -11.6,-17.51 -20.6,-17.51 -8.7,0 -19.36,10.01 -19.36,17.51l0 81.28 -79.69 0 0 -81.28c0,-7.5 -12.07,-17.51 -21.23,-17.51 -8.54,0 -18.74,10.01 -18.74,17.51l0 81.28 -18.73 0c-6.47,0 -13.73,7.28 -13.73,13.76l0 95.04c0,32.51 48.33,73.78 84.67,73.78l0 63.04c0,24.5 10.52,51.3 36.34,51.3 17.6,0 39.07,-3.57 63.6,-11.32 103.93,-32.85 180.03,-129.79 180.03,-244.33 0,-141.58 -114.62,-256.36 -256,-256.36 -141.38,0 -256,114.78 -256,256.36 0,118.26 64.28,219.44 168.44,247.41 13.18,3.54 20.51,-9.68 23.65,-19.78z"/>
 </g>
</svg>
